<svg xmlns="http://www.w3.org/2000/svg" viewBox="0 0 49 64" fill="none">
	<path
		stroke="currentColor"
		stroke-width="3"
		d="M37.5592 14.6704C41.089 14.6704 43.9505 11.8341 43.9505 8.3352C43.9505 4.83631 41.089 2 37.5592 2C34.0293 2 31.1678 4.83631 31.1678 8.3352C31.1678 11.8341 34.0312 14.6704 37.5612 14.6704C35.8019 14.6704 34.378 16.0839 34.378 17.8276V55.7222C31.0076 55.7364 28 58.4647 28 61.8189C28 61.9329 28.0916 62 28.207 62H46.9119C47.0271 62 47.1209 61.9169 47.1209 61.8028C47.1209 58.44 44.236 55.6897 40.8435 55.6897H40.7444V17.8277C40.7444 16.0839 39.3184 14.6704 37.5592 14.6704Z"/>

	<path
		stroke="currentColor"
		stroke-width="3"
		d="M11.5592 14.6704C15.089 14.6704 17.9505 11.8341 17.9505 8.3352C17.9505 4.83631 15.089 2 11.5592 2C8.02934 2 5.16784 4.83631 5.16784 8.3352C5.16784 11.8341 8.03121 14.6704 11.5612 14.6704C9.80194 14.6704 8.378 16.0839 8.378 17.8276V55.7222C5.00756 55.7364 2 58.4647 2 61.8189C2 61.9329 2.09163 62 2.20697 62H20.9119C21.0271 62 21.1209 61.9169 21.1209 61.8028C21.1209 58.44 18.236 55.6897 14.8435 55.6897H14.7444V17.8277C14.7444 16.0839 13.3184 14.6704 11.5592 14.6704Z"/>

	<path
		stroke="currentColor"
		stroke-width="3"
		stroke-linecap="round"
		stroke-linejoin="round"
		d="M34 15C32.6211 16.2682 30.9842 17.2741 29.1826 17.9604C27.381 18.6468 25.45 19 23.5 19C21.55 19 19.619 18.6468 17.8174 17.9604C16.0158 17.2741 14.3789 16.2682 13 15"/>
</svg>
